{
	"asset":{
		"generator":"Khronos glTF Blender I/O v3.5.30",
		"version":"2.0"
	},
	"extensionsUsed":[
		"KHR_materials_specular",
		"KHR_materials_ior"
	],
	"scene":0,
	"scenes":[
		{
			"name":"Scene",
			"nodes":[
				0,
				1,
				2
			]
		}
	],
	"nodes":[
		{
			"mesh":0,
			"name":"Cylinder",
			"scale":[
				0.9139553308486938,
				0.7829009294509888,
				1
			]
		},
		{
			"mesh":1,
			"name":"Cylinder.001",
			"scale":[
				0.8898329138755798,
				0.7622374296188354,
				0.973606526851654
			],
			"translation":[
				0,
				0.042002223432064056,
				0
			]
		},
		{
			"mesh":2,
			"name":"Text",
			"rotation":[
				0.4592673182487488,
				0.5493038892745972,
				-0.4391804337501526,
				0.5426411628723145
			],
			"scale":[
				0.1317387968301773,
				0.1317388415336609,
				0.1317388117313385
			],
			"translation":[
				0.8432902097702026,
				-0.6376850008964539,
				0.06349550932645798
			]
		}
	],
	"materials":[
		{
			"doubleSided":true,
			"name":"Material.002",
			"pbrMetallicRoughness":{
				"baseColorFactor":[
					0.4672032296657562,
					0.23301854729652405,
					0.08894027769565582,
					1
				],
				"metallicFactor":0
			}
		},
		{
			"doubleSided":true,
			"name":"Material.001",
			"pbrMetallicRoughness":{
				"baseColorFactor":[
					0,
					0,
					0,
					1
				],
				"metallicFactor":0,
				"roughnessFactor":0.6860464811325073
			}
		},
		{
			"doubleSided":true,
			"extensions":{
				"KHR_materials_specular":{
					"specularColorFactor":[
						2.371357614441398,
						2.371357614441398,
						2.371357614441398
					]
				},
				"KHR_materials_ior":{
					"ior":1.4500000476837158
				}
			},
			"name":"Material.003",
			"pbrMetallicRoughness":{
				"baseColorFactor":[
					0.8000000715255737,
					0.467475026845932,
					0.15495479106903076,
					1
				],
				"roughnessFactor":0
			}
		}
	],
	"meshes":[
		{
			"name":"Mesh",
			"primitives":[
				{
					"attributes":{
						"POSITION":0,
						"TEXCOORD_0":1,
						"NORMAL":2
					},
					"indices":3,
					"material":0
				}
			]
		},
		{
			"name":"Mesh",
			"primitives":[
				{
					"attributes":{
						"POSITION":4,
						"TEXCOORD_0":5,
						"NORMAL":6
					},
					"indices":7,
					"material":1
				}
			]
		},
		{
			"name":"Text",
			"primitives":[
				{
					"attributes":{
						"POSITION":8,
						"TEXCOORD_0":9,
						"NORMAL":10
					},
					"indices":11,
					"material":2
				}
			]
		}
	],
	"accessors":[
		{
			"bufferView":0,
			"componentType":5126,
			"count":1980,
			"max":[
				1.3670361042022705,
				0.25323286652565,
				1.3346480131149292
			],
			"min":[
				-1.3670363426208496,
				-1.0376194715499878,
				-1.237139344215393
			],
			"type":"VEC3"
		},
		{
			"bufferView":1,
			"componentType":5126,
			"count":1980,
			"type":"VEC2"
		},
		{
			"bufferView":2,
			"componentType":5126,
			"count":1980,
			"type":"VEC3"
		},
		{
			"bufferView":3,
			"componentType":5123,
			"count":9240,
			"type":"SCALAR"
		},
		{
			"bufferView":4,
			"componentType":5126,
			"count":204,
			"max":[
				0.9540514349937439,
				-0.6496211290359497,
				0.9437578320503235
			],
			"min":[
				-0.9540514349937439,
				-0.9853315949440002,
				-0.9604034423828125
			],
			"type":"VEC3"
		},
		{
			"bufferView":5,
			"componentType":5126,
			"count":204,
			"type":"VEC2"
		},
		{
			"bufferView":6,
			"componentType":5126,
			"count":204,
			"type":"VEC3"
		},
		{
			"bufferView":7,
			"componentType":5123,
			"count":960,
			"type":"SCALAR"
		},
		{
			"bufferView":8,
			"componentType":5126,
			"count":2555,
			"max":[
				0.8703491687774658,
				0.059134989976882935,
				0.08093315362930298
			],
			"min":[
				-1.9878566265106201,
				-0.5345985293388367,
				-0.8302850127220154
			],
			"type":"VEC3"
		},
		{
			"bufferView":9,
			"componentType":5126,
			"count":2555,
			"type":"VEC2"
		},
		{
			"bufferView":10,
			"componentType":5126,
			"count":2555,
			"type":"VEC3"
		},
		{
			"bufferView":11,
			"componentType":5123,
			"count":4944,
			"type":"SCALAR"
		}
	],
	"bufferViews":[
		{
			"buffer":0,
			"byteLength":23760,
			"byteOffset":0,
			"target":34962
		},
		{
			"buffer":0,
			"byteLength":15840,
			"byteOffset":23760,
			"target":34962
		},
		{
			"buffer":0,
			"byteLength":23760,
			"byteOffset":39600,
			"target":34962
		},
		{
			"buffer":0,
			"byteLength":18480,
			"byteOffset":63360,
			"target":34963
		},
		{
			"buffer":0,
			"byteLength":2448,
			"byteOffset":81840,
			"target":34962
		},
		{
			"buffer":0,
			"byteLength":1632,
			"byteOffset":84288,
			"target":34962
		},
		{
			"buffer":0,
			"byteLength":2448,
			"byteOffset":85920,
			"target":34962
		},
		{
			"buffer":0,
			"byteLength":1920,
			"byteOffset":88368,
			"target":34963
		},
		{
			"buffer":0,
			"byteLength":30660,
			"byteOffset":90288,
			"target":34962
		},
		{
			"buffer":0,
			"byteLength":20440,
			"byteOffset":120948,
			"target":34962
		},
		{
			"buffer":0,
			"byteLength":30660,
			"byteOffset":141388,
			"target":34962
		},
		{
			"buffer":0,
			"byteLength":9888,
			"byteOffset":172048,
			"target":34963
		}
	],
	"buffers":[
		{
			"byteLength":181936,
			"uri":"data:application/octet-stream;base64,"
		}
	]
}
